<svg xmlns="http://www.w3.org/2000/svg" viewBox="0 0 800 1000" width="800" height="1000">
  <defs>
    <linearGradient id="headerGrad" x1="0%" y1="0%" x2="100%" y2="100%">
      <stop offset="0%" style="stop-color:#c62828;stop-opacity:1" />
      <stop offset="100%" style="stop-color:#ad1457;stop-opacity:1" />
    </linearGradient>
    <linearGradient id="sectionGrad1" x1="0%" y1="0%" x2="100%" y2="0%">
      <stop offset="0%" style="stop-color:#c62828;stop-opacity:0.12" />
      <stop offset="100%" style="stop-color:#ad1457;stop-opacity:0.05" />
    </linearGradient>
    <linearGradient id="sectionGrad2" x1="0%" y1="0%" x2="100%" y2="0%">
      <stop offset="0%" style="stop-color:#ad1457;stop-opacity:0.12" />
      <stop offset="100%" style="stop-color:#c62828;stop-opacity:0.05" />
    </linearGradient>
    <linearGradient id="timelineGrad" x1="0%" y1="0%" x2="0%" y2="100%">
      <stop offset="0%" style="stop-color:#c62828" />
      <stop offset="100%" style="stop-color:#ad1457" />
    </linearGradient>
    <linearGradient id="closedLoopGrad" x1="0%" y1="0%" x2="100%" y2="100%">
      <stop offset="0%" style="stop-color:#b71c1c;stop-opacity:1" />
      <stop offset="100%" style="stop-color:#880e4f;stop-opacity:1" />
    </linearGradient>
    <filter id="shadow" x="-5%" y="-5%" width="110%" height="115%">
      <feDropShadow dx="0" dy="2" stdDeviation="3" flood-color="#00000022"/>
    </filter>
    <filter id="goldGlow">
      <feDropShadow dx="0" dy="0" stdDeviation="2" flood-color="#f9a825" flood-opacity="0.5"/>
    </filter>
  </defs>

  <!-- Background -->
  <rect width="800" height="1000" fill="#fafafa"/>
  <rect width="800" height="1000" fill="url(#sectionGrad1)" opacity="0.3"/>

  <!-- Decorative top strip -->
  <rect x="0" y="0" width="800" height="4" fill="url(#headerGrad)"/>

  <!-- ===== HEADER ===== -->
  <rect x="0" y="4" width="800" height="80" fill="url(#headerGrad)" filter="url(#shadow)"/>
  <!-- Decorative circles -->
  <circle cx="730" cy="44" r="50" fill="#ffffff" opacity="0.06"/>
  <circle cx="680" cy="70" r="30" fill="#ffffff" opacity="0.05"/>
  <circle cx="70" cy="20" r="40" fill="#ffffff" opacity="0.05"/>

  <!-- Gold accent bar -->
  <rect x="40" y="18" width="4" height="52" fill="#f9a825" rx="2"/>

  <text x="56" y="40" font-family="'PingFang SC','Microsoft YaHei','SimHei',sans-serif" font-size="11" font-weight="500" fill="#ffcc80" letter-spacing="2">联盟营销权威案例复盘</text>
  <text x="56" y="68" font-family="'PingFang SC','Microsoft YaHei','SimHei',sans-serif" font-size="22" font-weight="700" fill="#ffffff" letter-spacing="1">标杆案例 · 成长路径 · 失败教训</text>

  <!-- ===== SECTION 1: 标杆创作者收益 ===== -->
  <rect x="20" y="100" width="760" height="8" rx="4" fill="url(#headerGrad)" opacity="0.15"/>

  <!-- Section header -->
  <rect x="20" y="112" width="4" height="28" fill="#c62828" rx="2"/>
  <text x="32" y="131" font-family="'PingFang SC','Microsoft YaHei','SimHei',sans-serif" font-size="14" font-weight="700" fill="#c62828" letter-spacing="1">01  标杆创作者收益</text>
  <text x="700" y="131" font-family="'PingFang SC','Microsoft YaHei','SimHei',sans-serif" font-size="11" fill="#888">真实案例</text>

  <!-- Creator Cards Row 1 -->
  <!-- Card 1: Adam Enfroy -->
  <rect x="20" y="148" width="180" height="96" rx="10" fill="url(#sectionGrad1)" stroke="#c62828" stroke-width="1.2" filter="url(#shadow)"/>
  <rect x="20" y="148" width="180" height="6" rx="5" fill="#c62828" opacity="0.7"/>
  <text x="110" y="167" font-family="'PingFang SC','Microsoft YaHei','SimHei',sans-serif" font-size="11" font-weight="700" fill="#c62828" text-anchor="middle">Adam Enfroy</text>
  <text x="110" y="183" font-family="'PingFang SC','Microsoft YaHei','SimHei',sans-serif" font-size="9.5" fill="#555" text-anchor="middle">软件利基 + 博客/YouTube联动</text>
  <!-- Gold achievement badge -->
  <rect x="50" y="193" width="120" height="22" rx="11" fill="#f9a825" opacity="0.15"/>
  <text x="110" y="208" font-family="'PingFang SC','Microsoft YaHei','SimHei',sans-serif" font-size="13" font-weight="800" fill="#c62828" text-anchor="middle" filter="url(#goldGlow)">$500万+</text>
  <text x="110" y="233" font-family="'PingFang SC','Microsoft YaHei','SimHei',sans-serif" font-size="9" fill="#888" text-anchor="middle">年度收益标杆</text>

  <!-- Card 2: Spencer Mecham -->
  <rect x="210" y="148" width="180" height="96" rx="10" fill="url(#sectionGrad2)" stroke="#ad1457" stroke-width="1.2" filter="url(#shadow)"/>
  <rect x="210" y="148" width="180" height="6" rx="5" fill="#ad1457" opacity="0.7"/>
  <text x="300" y="167" font-family="'PingFang SC','Microsoft YaHei','SimHei',sans-serif" font-size="10.5" font-weight="700" fill="#ad1457" text-anchor="middle">Spencer Mecham</text>
  <text x="300" y="181" font-family="'PingFang SC','Microsoft YaHei','SimHei',sans-serif" font-size="9" fill="#555" text-anchor="middle">高客单价产品</text>
  <text x="300" y="194" font-family="'PingFang SC','Microsoft YaHei','SimHei',sans-serif" font-size="9" fill="#555" text-anchor="middle">邮件自动化系统</text>
  <rect x="238" y="202" width="124" height="20" rx="10" fill="#ad1457" opacity="0.1"/>
  <text x="300" y="216" font-family="'PingFang SC','Microsoft YaHei','SimHei',sans-serif" font-size="11" font-weight="700" fill="#ad1457" text-anchor="middle">Buildapreneur</text>
  <text x="300" y="233" font-family="'PingFang SC','Microsoft YaHei','SimHei',sans-serif" font-size="9" fill="#888" text-anchor="middle">自动化营销典范</text>

  <!-- Card 3: Josh Burns Tech -->
  <rect x="400" y="148" width="180" height="96" rx="10" fill="url(#sectionGrad1)" stroke="#c62828" stroke-width="1.2" filter="url(#shadow)"/>
  <rect x="400" y="148" width="180" height="6" rx="5" fill="#c62828" opacity="0.7"/>
  <text x="490" y="167" font-family="'PingFang SC','Microsoft YaHei','SimHei',sans-serif" font-size="11" font-weight="700" fill="#c62828" text-anchor="middle">Josh Burns Tech</text>
  <text x="490" y="181" font-family="'PingFang SC','Microsoft YaHei','SimHei',sans-serif" font-size="9" fill="#555" text-anchor="middle">YouTube / TikTok</text>
  <text x="490" y="194" font-family="'PingFang SC','Microsoft YaHei','SimHei',sans-serif" font-size="9" fill="#555" text-anchor="middle">视频内容矩阵</text>
  <rect x="432" y="202" width="116" height="22" rx="11" fill="#f9a825" opacity="0.15"/>
  <text x="490" y="218" font-family="'PingFang SC','Microsoft YaHei','SimHei',sans-serif" font-size="13" font-weight="800" fill="#c62828" text-anchor="middle" filter="url(#goldGlow)">月收 $4万+</text>
  <text x="490" y="233" font-family="'PingFang SC','Microsoft YaHei','SimHei',sans-serif" font-size="9" fill="#888" text-anchor="middle">视频联盟标杆</text>

  <!-- Card 4: Nate O'Brien -->
  <rect x="590" y="148" width="190" height="96" rx="10" fill="url(#sectionGrad2)" stroke="#ad1457" stroke-width="1.2" filter="url(#shadow)"/>
  <rect x="590" y="148" width="190" height="6" rx="5" fill="#ad1457" opacity="0.7"/>
  <text x="685" y="167" font-family="'PingFang SC','Microsoft YaHei','SimHei',sans-serif" font-size="10.5" font-weight="700" fill="#ad1457" text-anchor="middle">Nate O'Brien</text>
  <text x="685" y="181" font-family="'PingFang SC','Microsoft YaHei','SimHei',sans-serif" font-size="9" fill="#555" text-anchor="middle">个人理财 / 农业利基</text>
  <text x="685" y="194" font-family="'PingFang SC','Microsoft YaHei','SimHei',sans-serif" font-size="9" fill="#555" text-anchor="middle">博客矩阵策略</text>
  <rect x="625" y="202" width="120" height="20" rx="10" fill="#ad1457" opacity="0.1"/>
  <text x="685" y="216" font-family="'PingFang SC','Microsoft YaHei','SimHei',sans-serif" font-size="11" font-weight="700" fill="#ad1457" text-anchor="middle">Santrel Media</text>
  <text x="685" y="233" font-family="'PingFang SC','Microsoft YaHei','SimHei',sans-serif" font-size="9" fill="#888" text-anchor="middle">多利基矩阵典范</text>

  <!-- ===== SECTION 2: 网站级案例（退出价值）===== -->
  <rect x="20" y="260" width="760" height="1" fill="#e0e0e0"/>
  <rect x="20" y="268" width="4" height="28" fill="#c62828" rx="2"/>
  <text x="32" y="287" font-family="'PingFang SC','Microsoft YaHei','SimHei',sans-serif" font-size="14" font-weight="700" fill="#c62828" letter-spacing="1">02  网站级案例（退出价值）</text>

  <!-- Exit Case boxes -->
  <rect x="20" y="302" width="360" height="80" rx="12" fill="url(#headerGrad)" filter="url(#shadow)"/>
  <!-- Shine overlay -->
  <rect x="20" y="302" width="180" height="80" rx="12" fill="#ffffff" opacity="0.05"/>
  <text x="40" y="325" font-family="'PingFang SC','Microsoft YaHei','SimHei',sans-serif" font-size="12" font-weight="700" fill="#ffcc80">The Points Guy</text>
  <text x="40" y="342" font-family="'PingFang SC','Microsoft YaHei','SimHei',sans-serif" font-size="10" fill="#ffcdd2">信用卡利基 · 精准高净值受众</text>
  <rect x="40" y="352" width="140" height="22" rx="11" fill="#f9a825" opacity="0.25"/>
  <text x="110" y="367" font-family="'PingFang SC','Microsoft YaHei','SimHei',sans-serif" font-size="13" font-weight="800" fill="#f9a825" text-anchor="middle" filter="url(#goldGlow)">数千万美元收购</text>

  <rect x="400" y="302" width="380" height="80" rx="12" fill="url(#closedLoopGrad)" filter="url(#shadow)"/>
  <rect x="400" y="302" width="200" height="80" rx="12" fill="#ffffff" opacity="0.04"/>
  <text x="420" y="325" font-family="'PingFang SC','Microsoft YaHei','SimHei',sans-serif" font-size="12" font-weight="700" fill="#ffcc80">The Penny Hoarder</text>
  <text x="420" y="342" font-family="'PingFang SC','Microsoft YaHei','SimHei',sans-serif" font-size="10" fill="#ffcdd2">个人理财利基 · 规模化流量</text>
  <rect x="432" y="352" width="140" height="22" rx="11" fill="#f9a825" opacity="0.3"/>
  <text x="502" y="367" font-family="'PingFang SC','Microsoft YaHei','SimHei',sans-serif" font-size="13" font-weight="800" fill="#f9a825" text-anchor="middle" filter="url(#goldGlow)">$1.02亿美元售出</text>

  <!-- Core logic callout -->
  <rect x="20" y="394" width="760" height="32" rx="8" fill="#fff3e0" stroke="#f9a825" stroke-width="1.5"/>
  <text x="40" y="408" font-family="'PingFang SC','Microsoft YaHei','SimHei',sans-serif" font-size="11" font-weight="700" fill="#e65100">⚡ 核心逻辑：</text>
  <text x="118" y="408" font-family="'PingFang SC','Microsoft YaHei','SimHei',sans-serif" font-size="11" fill="#555">流量资产 = 可变现的长期价值  ·  网站本身即是可出售的资产，而非只是收入来源</text>
  <text x="40" y="421" font-family="'PingFang SC','Microsoft YaHei','SimHei',sans-serif" font-size="9.5" fill="#888">内容 × 流量 × 时间 → 企业级估值</text>

  <!-- ===== SECTION 3: 新手成长时间线 ===== -->
  <rect x="20" y="440" width="760" height="1" fill="#e0e0e0"/>
  <rect x="20" y="448" width="4" height="28" fill="#c62828" rx="2"/>
  <text x="32" y="467" font-family="'PingFang SC','Microsoft YaHei','SimHei',sans-serif" font-size="14" font-weight="700" fill="#c62828" letter-spacing="1">03  新手成长时间线</text>

  <!-- Timeline track -->
  <rect x="60" y="510" width="680" height="6" rx="3" fill="url(#timelineGrad)" opacity="0.25"/>
  <rect x="60" y="510" width="680" height="6" rx="3" fill="none" stroke="#c62828" stroke-width="0.5" opacity="0.3"/>

  <!-- Progress fill (gradual) -->
  <rect x="60" y="510" width="680" height="6" rx="3" fill="url(#timelineGrad)" opacity="0.4"/>

  <!-- Timeline nodes -->
  <!-- Node 1: 月1-3 -->
  <circle cx="120" cy="513" r="14" fill="url(#headerGrad)" filter="url(#shadow)"/>
  <text x="120" y="518" font-family="'PingFang SC','Microsoft YaHei','SimHei',sans-serif" font-size="9" font-weight="700" fill="#fff" text-anchor="middle">1-3</text>
  <text x="120" y="534" font-family="'PingFang SC','Microsoft YaHei','SimHei',sans-serif" font-size="9" font-weight="700" fill="#c62828" text-anchor="middle">月</text>

  <rect x="60" y="545" width="120" height="64" rx="8" fill="#fff" stroke="#c62828" stroke-width="1.2" filter="url(#shadow)"/>
  <rect x="60" y="545" width="120" height="4" rx="4" fill="#c62828" opacity="0.6"/>
  <text x="120" y="562" font-family="'PingFang SC','Microsoft YaHei','SimHei',sans-serif" font-size="10" font-weight="700" fill="#c62828" text-anchor="middle">建站/建频道</text>
  <text x="120" y="576" font-family="'PingFang SC','Microsoft YaHei','SimHei',sans-serif" font-size="9" fill="#777" text-anchor="middle">收入：$0</text>
  <text x="120" y="590" font-family="'PingFang SC','Microsoft YaHei','SimHei',sans-serif" font-size="8.5" fill="#555" text-anchor="middle">专注内容质量</text>
  <rect x="100" y="595" width="40" height="10" rx="5" fill="#c62828" opacity="0.1"/>
  <text x="120" y="604" font-family="'PingFang SC','Microsoft YaHei','SimHei',sans-serif" font-size="7.5" fill="#c62828" text-anchor="middle">打基础</text>

  <!-- Node 2: 月4-6 -->
  <circle cx="310" cy="513" r="14" fill="url(#headerGrad)" filter="url(#shadow)"/>
  <text x="310" y="518" font-family="'PingFang SC','Microsoft YaHei','SimHei',sans-serif" font-size="9" font-weight="700" fill="#fff" text-anchor="middle">4-6</text>
  <text x="310" y="534" font-family="'PingFang SC','Microsoft YaHei','SimHei',sans-serif" font-size="9" font-weight="700" fill="#c62828" text-anchor="middle">月</text>

  <rect x="250" y="545" width="120" height="64" rx="8" fill="#fff" stroke="#ad1457" stroke-width="1.2" filter="url(#shadow)"/>
  <rect x="250" y="545" width="120" height="4" rx="4" fill="#ad1457" opacity="0.6"/>
  <text x="310" y="562" font-family="'PingFang SC','Microsoft YaHei','SimHei',sans-serif" font-size="10" font-weight="700" fill="#ad1457" text-anchor="middle">流量开始增长</text>
  <text x="310" y="576" font-family="'PingFang SC','Microsoft YaHei','SimHei',sans-serif" font-size="9" fill="#777" text-anchor="middle">小额佣金收入</text>
  <text x="310" y="590" font-family="'PingFang SC','Microsoft YaHei','SimHei',sans-serif" font-size="8.5" fill="#555" text-anchor="middle">搜索引擎收录</text>
  <rect x="288" y="595" width="44" height="10" rx="5" fill="#ad1457" opacity="0.1"/>
  <text x="310" y="604" font-family="'PingFang SC','Microsoft YaHei','SimHei',sans-serif" font-size="7.5" fill="#ad1457" text-anchor="middle">初见成效</text>

  <!-- Node 3: 月7-12 -->
  <circle cx="500" cy="513" r="14" fill="url(#headerGrad)" filter="url(#shadow)"/>
  <text x="500" y="518" font-family="'PingFang SC','Microsoft YaHei','SimHei',sans-serif" font-size="9" font-weight="700" fill="#fff" text-anchor="middle">7-12</text>
  <text x="500" y="534" font-family="'PingFang SC','Microsoft YaHei','SimHei',sans-serif" font-size="9" font-weight="700" fill="#c62828" text-anchor="middle">月</text>

  <rect x="440" y="545" width="120" height="64" rx="8" fill="#fff" stroke="#c62828" stroke-width="1.5" filter="url(#shadow)"/>
  <rect x="440" y="545" width="120" height="4" rx="4" fill="#c62828" opacity="0.7"/>
  <text x="500" y="562" font-family="'PingFang SC','Microsoft YaHei','SimHei',sans-serif" font-size="10" font-weight="700" fill="#c62828" text-anchor="middle">复利效应显现</text>
  <text x="500" y="576" font-family="'PingFang SC','Microsoft YaHei','SimHei',sans-serif" font-size="9" fill="#777" text-anchor="middle">收入加速增长</text>
  <text x="500" y="590" font-family="'PingFang SC','Microsoft YaHei','SimHei',sans-serif" font-size="8.5" fill="#555" text-anchor="middle">内容积累爆发</text>
  <rect x="474" y="595" width="52" height="10" rx="5" fill="#c62828" opacity="0.12"/>
  <text x="500" y="604" font-family="'PingFang SC','Microsoft YaHei','SimHei',sans-serif" font-size="7.5" fill="#c62828" text-anchor="middle">加速成长</text>

  <!-- Node 4: 月12-24 -->
  <circle cx="690" cy="513" r="14" fill="#f9a825" filter="url(#goldGlow)"/>
  <text x="690" y="518" font-family="'PingFang SC','Microsoft YaHei','SimHei',sans-serif" font-size="8" font-weight="700" fill="#fff" text-anchor="middle">12-24</text>
  <text x="690" y="534" font-family="'PingFang SC','Microsoft YaHei','SimHei',sans-serif" font-size="9" font-weight="700" fill="#c62828" text-anchor="middle">月</text>

  <rect x="630" y="545" width="130" height="64" rx="8" fill="#fff9c4" stroke="#f9a825" stroke-width="2" filter="url(#shadow)"/>
  <rect x="630" y="545" width="130" height="4" rx="4" fill="#f9a825"/>
  <text x="695" y="562" font-family="'PingFang SC','Microsoft YaHei','SimHei',sans-serif" font-size="10" font-weight="700" fill="#e65100" text-anchor="middle">显著收益实现</text>
  <text x="695" y="576" font-family="'PingFang SC','Microsoft YaHei','SimHei',sans-serif" font-size="9" fill="#777" text-anchor="middle">可考虑规模化</text>
  <text x="695" y="590" font-family="'PingFang SC','Microsoft YaHei','SimHei',sans-serif" font-size="8.5" fill="#555" text-anchor="middle">进入正向循环</text>
  <rect x="666" y="595" width="58" height="10" rx="5" fill="#f9a825" opacity="0.3"/>
  <text x="695" y="604" font-family="'PingFang SC','Microsoft YaHei','SimHei',sans-serif" font-size="7.5" fill="#e65100" text-anchor="middle">🏆 规模化</text>

  <!-- Timeline arrows -->
  <path d="M134 513 L296 513" stroke="#c62828" stroke-width="1.5" stroke-dasharray="4,3" opacity="0.5" marker-end="url(#arrow)"/>
  <path d="M324 513 L486 513" stroke="#c62828" stroke-width="1.5" stroke-dasharray="4,3" opacity="0.5"/>
  <path d="M514 513 L676 513" stroke="#c62828" stroke-width="1.5" stroke-dasharray="4,3" opacity="0.5"/>

  <!-- ===== SECTION 4: 失败教训 Top 5 ===== -->
  <rect x="20" y="630" width="760" height="1" fill="#e0e0e0"/>
  <rect x="20" y="638" width="4" height="28" fill="#c62828" rx="2"/>
  <text x="32" y="657" font-family="'PingFang SC','Microsoft YaHei','SimHei',sans-serif" font-size="14" font-weight="700" fill="#c62828" letter-spacing="1">04  失败教训 Top 5</text>
  <rect x="700" y="644" width="80" height="20" rx="10" fill="#c62828" opacity="0.1"/>
  <text x="740" y="658" font-family="'PingFang SC','Microsoft YaHei','SimHei',sans-serif" font-size="10" fill="#c62828" text-anchor="middle" font-weight="600">⚠ 避坑指南</text>

  <!-- Warning items -->
  <!-- Item 1 -->
  <rect x="20" y="670" width="370" height="38" rx="8" fill="#fff" stroke="#c62828" stroke-width="1" filter="url(#shadow)"/>
  <rect x="20" y="670" width="6" height="38" rx="3" fill="#c62828"/>
  <text x="38" y="685" font-family="'PingFang SC','Microsoft YaHei','SimHei',sans-serif" font-size="11" font-weight="700" fill="#c62828">✕  推广不信任的产品</text>
  <text x="38" y="700" font-family="'PingFang SC','Microsoft YaHei','SimHei',sans-serif" font-size="9.5" fill="#777">后果：信誉崩塌，受众永久流失</text>

  <!-- Item 2 -->
  <rect x="410" y="670" width="370" height="38" rx="8" fill="#fff" stroke="#ad1457" stroke-width="1" filter="url(#shadow)"/>
  <rect x="410" y="670" width="6" height="38" rx="3" fill="#ad1457"/>
  <text x="428" y="685" font-family="'PingFang SC','Microsoft YaHei','SimHei',sans-serif" font-size="11" font-weight="700" fill="#ad1457">✕  只推低佣金产品</text>
  <text x="428" y="700" font-family="'PingFang SC','Microsoft YaHei','SimHei',sans-serif" font-size="9.5" fill="#777">后果：流量再大也白费，ROI极低</text>

  <!-- Item 3 -->
  <rect x="20" y="716" width="370" height="38" rx="8" fill="#fff" stroke="#c62828" stroke-width="1" filter="url(#shadow)"/>
  <rect x="20" y="716" width="6" height="38" rx="3" fill="#c62828"/>
  <text x="38" y="731" font-family="'PingFang SC','Microsoft YaHei','SimHei',sans-serif" font-size="11" font-weight="700" fill="#c62828">✕  不披露联属关系</text>
  <text x="38" y="746" font-family="'PingFang SC','Microsoft YaHei','SimHei',sans-serif" font-size="9.5" fill="#777">后果：法律风险 + 平台封号 + 信任危机</text>

  <!-- Item 4 -->
  <rect x="410" y="716" width="370" height="38" rx="8" fill="#fff" stroke="#ad1457" stroke-width="1" filter="url(#shadow)"/>
  <rect x="410" y="716" width="6" height="38" rx="3" fill="#ad1457"/>
  <text x="428" y="731" font-family="'PingFang SC','Microsoft YaHei','SimHei',sans-serif" font-size="11" font-weight="700" fill="#ad1457">✕  追求AI批量内容</text>
  <text x="428" y="746" font-family="'PingFang SC','Microsoft YaHei','SimHei',sans-serif" font-size="9.5" fill="#777">后果：转化率极低，被搜索引擎降权</text>

  <!-- Item 5 (centered) -->
  <rect x="215" y="762" width="370" height="38" rx="8" fill="#fff3e0" stroke="#f9a825" stroke-width="1.5" filter="url(#shadow)"/>
  <rect x="215" y="762" width="6" height="38" rx="3" fill="#f9a825"/>
  <text x="233" y="777" font-family="'PingFang SC','Microsoft YaHei','SimHei',sans-serif" font-size="11" font-weight="700" fill="#e65100">✕  过早放弃</text>
  <text x="233" y="792" font-family="'PingFang SC','Microsoft YaHei','SimHei',sans-serif" font-size="9.5" fill="#777">后果：错过复利爆发点，前功尽弃</text>

  <!-- ===== SECTION 5: 成功闭环总结 ===== -->
  <rect x="20" y="818" width="760" height="1" fill="#e0e0e0"/>
  <rect x="20" y="826" width="4" height="28" fill="#c62828" rx="2"/>
  <text x="32" y="845" font-family="'PingFang SC','Microsoft YaHei','SimHei',sans-serif" font-size="14" font-weight="700" fill="#c62828" letter-spacing="1">05  成功闭环总结</text>

  <!-- Closed loop background -->
  <rect x="20" y="860" width="760" height="80" rx="14" fill="url(#closedLoopGrad)" filter="url(#shadow)"/>
  <rect x="20" y="860" width="760" height="80" rx="14" fill="none" stroke="#f9a825" stroke-width="1.5" opacity="0.4"/>

  <!-- Loop steps -->
  <!-- Step 1 -->
  <rect x="40" y="876" width="88" height="46" rx="8" fill="#ffffff" opacity="0.15"/>
  <text x="84" y="897" font-family="'PingFang SC','Microsoft YaHei','SimHei',sans-serif" font-size="10" font-weight="700" fill="#fff" text-anchor="middle">优质内容</text>
  <text x="84" y="912" font-family="'PingFang SC','Microsoft YaHei','SimHei',sans-serif" font-size="8.5" fill="#ffcdd2" text-anchor="middle">价值输出</text>

  <!-- Arrow 1 -->
  <path d="M132 899 L152 899" stroke="#f9a825" stroke-width="2" marker-end="url(#goldArrow)"/>
  <polygon points="150,895 158,899 150,903" fill="#f9a825"/>

  <!-- Step 2 -->
  <rect x="158" y="876" width="88" height="46" rx="8" fill="#ffffff" opacity="0.15"/>
  <text x="202" y="897" font-family="'PingFang SC','Microsoft YaHei','SimHei',sans-serif" font-size="10" font-weight="700" fill="#fff" text-anchor="middle">精准流量</text>
  <text x="202" y="912" font-family="'PingFang SC','Microsoft YaHei','SimHei',sans-serif" font-size="8.5" fill="#ffcdd2" text-anchor="middle">目标受众</text>

  <!-- Arrow 2 -->
  <polygon points="250,895 258,899 250,903" fill="#f9a825"/>

  <!-- Step 3 -->
  <rect x="258" y="876" width="88" height="46" rx="8" fill="#ffffff" opacity="0.18"/>
  <text x="302" y="897" font-family="'PingFang SC','Microsoft YaHei','SimHei',sans-serif" font-size="10" font-weight="700" fill="#fff" text-anchor="middle">信任建立</text>
  <text x="302" y="912" font-family="'PingFang SC','Microsoft YaHei','SimHei',sans-serif" font-size="8.5" fill="#ffcdd2" text-anchor="middle">持续互动</text>

  <!-- Arrow 3 -->
  <polygon points="350,895 358,899 350,903" fill="#f9a825"/>

  <!-- Step 4 -->
  <rect x="358" y="876" width="88" height="46" rx="8" fill="#ffffff" opacity="0.18"/>
  <text x="402" y="897" font-family="'PingFang SC','Microsoft YaHei','SimHei',sans-serif" font-size="10" font-weight="700" fill="#fff" text-anchor="middle">高转化</text>
  <text x="402" y="912" font-family="'PingFang SC','Microsoft YaHei','SimHei',sans-serif" font-size="8.5" fill="#ffcdd2" text-anchor="middle">精准推荐</text>

  <!-- Arrow 4 -->
  <polygon points="450,895 458,899 450,903" fill="#f9a825"/>

  <!-- Step 5 -->
  <rect x="458" y="876" width="98" height="46" rx="8" fill="#f9a825" opacity="0.3"/>
  <text x="507" y="897" font-family="'PingFang SC','Microsoft YaHei','SimHei',sans-serif" font-size="10" font-weight="700" fill="#fff" text-anchor="middle">被动收入</text>
  <text x="507" y="912" font-family="'PingFang SC','Microsoft YaHei','SimHei',sans-serif" font-size="8.5" fill="#ffe082" text-anchor="middle">睡后收益</text>

  <!-- Arrow 5 -->
  <polygon points="560,895 568,899 560,903" fill="#f9a825"/>

  <!-- Step 6 -->
  <rect x="568" y="876" width="102" height="46" rx="8" fill="#f9a825" opacity="0.4"/>
  <text x="619" y="894" font-family="'PingFang SC','Microsoft YaHei','SimHei',sans-serif" font-size="10" font-weight="700" fill="#fff" text-anchor="middle">规模化</text>
  <text x="619" y="908" font-family="'PingFang SC','Microsoft YaHei','SimHei',sans-serif" font-size="8.5" fill="#ffe082" text-anchor="middle">系统扩张</text>

  <!-- Loop back arrow -->
  <path d="M670 899 Q720 899 720 855 Q720 862 680 862 Q660 862 650 862 Q400 862 84 862 Q60 862 50 870 Q42 876 42 876" stroke="#f9a825" stroke-width="1.5" fill="none" stroke-dasharray="5,3" opacity="0.7"/>
  <polygon points="40,872 44,880 48,872" fill="#f9a825" opacity="0.7"/>

  <!-- ===== FOOTER ===== -->
  <rect x="0" y="955" width="800" height="45" fill="#1a1a1a"/>
  <rect x="0" y="955" width="800" height="3" fill="url(#headerGrad)"/>
  <text x="40" y="976" font-family="'PingFang SC','Microsoft YaHei','SimHei',sans-serif" font-size="10" fill="#888">联盟营销盈利闭环研究</text>
  <text x="400" y="976" font-family="'PingFang SC','Microsoft YaHei','SimHei',sans-serif" font-size="10" fill="#666" text-anchor="middle">案例复盘  ·  info-05</text>
  <text x="760" y="976" font-family="'PingFang SC','Microsoft YaHei','SimHei',sans-serif" font-size="10" fill="#555" text-anchor="end">2026-04-09</text>
  <text x="40" y="991" font-family="'PingFang SC','Microsoft YaHei','SimHei',sans-serif" font-size="9" fill="#555">真实案例 · 成长时间线 · 避坑指南 · 成功闭环</text>

</svg>
